# xmcd
#
# Track frame offsets:
#	150
#	10183
#	19787
#	32512
#	41513
#	54308
#	68065
#	79052
#	88032
#	97839
#	109766
#	123738
#	135581
#	147925
#	158603
#	170024
#	181953
#	194490
#	205337
#	218188
#	228264
#	239183
#	250078
#	263834
#	273339
#	286568
#
# Disc length: 3989 seconds
#
# Revision: 0
# Processed by: cddbd v1.5.2PL0 Copyright (c) Steve Scherf et al.
# Submitted via: EZCDAudioConverter 1.3.4.1
#
DISCID=680f931a
DTITLE=Various Artist - Book A Trip
DYEAR=1900
DGENRE=
TTITLE0=This Side Up - Book A Trip
TTITLE1=The Shanes - Chris Craft No. 9
TTITLE2=Chris And Craig - I Need You
TTITLE3=Act Of Creation - Yesterday Noontime
TTITLE4=Sidewalk Skipper Band - Strawberry Tuesday
TTITLE5=Tim Wilde - Popcorn Double Feature
TTITLE6=Teddy Neeley Five - Autumn Afternoon
TTITLE7=Fargo - Robins Robins
TTITLE8=Stained Glass - Lady In Lace
TTITLE9=The Staccatos - Whisper Words
TTITLE10=Moorpark Intersection - I Think I'll Just Go And Find Me A Flower
TTITLE11=Sidewalk Skipper Band - Cynthia At The Garden
TTITLE12=Tuneful Trolley - Written Charter
TTITLE13=The Exception - My Mind Goes Traveling
TTITLE14=Four Preps - Hitchhiker
TTITLE15=The Lettermen - Mr. Sun
TTITLE16=Lively Set - Let The Trumpets Sound
TTITLE17=Carnival Connection - Poster Man
TTITLE18=Phoenix Trolley - When Charlie's Doin' His Thing
TTITLE19=Sidewalk Skipper Band - (Would You Believe) It's Raining Flowers In M
TTITLE19=y House
TTITLE20=Summer Snow - Flying On The Ground
TTITLE21=Burgundy Street Singers - Pleasure Of Her Company
TTITLE22=Griffin - Yours Till Forever
TTITLE23=Moorpark Intersection - Yesterday Holds On
TTITLE24=Pleasure - Don't Take The Night Away
TTITLE25=Sidewalk Skipper Band - Seventeenth Summer
EXTD=
EXTT0=
EXTT1=
EXTT2=
EXTT3=
EXTT4=
EXTT5=
EXTT6=
EXTT7=
EXTT8=
EXTT9=
EXTT10=
EXTT11=
EXTT12=
EXTT13=
EXTT14=
EXTT15=
EXTT16=
EXTT17=
EXTT18=
EXTT19=
EXTT20=
EXTT21=
EXTT22=
EXTT23=
EXTT24=
EXTT25=
PLAYORDER=
